<svg width="30" height="30" viewBox="0 0 30 30" fill="none" xmlns="http://www.w3.org/2000/svg">
<path d="M0 30V0H30V30L15 26.5909L0 30Z" fill="#7B97FA"/>
<path fill-rule="evenodd" clip-rule="evenodd" d="M21 14.0363C21 10.7028 18.3134 8 15 8C11.6866 8 9 10.7028 9 14.0363C9 17.0491 11.1938 19.5462 14.0625 19.9994V15.7817H12.5387V14.0363H14.0625V12.7064C14.0625 11.1938 14.9584 10.3576 16.3288 10.3576C16.9854 10.3576 17.6721 10.4757 17.6721 10.4757V11.9613H16.9152C16.1702 11.9613 15.9372 12.4264 15.9372 12.9045V14.0363H17.6012L17.3354 15.7817H15.9375V20C18.8063 19.547 21 17.0497 21 14.0363Z" fill="white"/>
</svg>
