<svg width="25" height="25" viewBox="0 0 25 25" fill="none" xmlns="http://www.w3.org/2000/svg">
<path d="M0 25V0H25V25L12.5 22.1591L0 25Z" fill="#7B97FA"/>
<path fill-rule="evenodd" clip-rule="evenodd" d="M16.375 11.0264C16.375 8.61035 14.416 6.65137 12 6.65137C9.58398 6.65137 7.625 8.61035 7.625 11.0264C7.625 13.21 9.22461 15.0199 11.3164 15.3484V12.2914H10.2053V11.0264H11.3164V10.0625C11.3164 8.96621 11.9697 8.36016 12.9689 8.36016C13.4477 8.36016 13.9484 8.4457 13.9484 8.4457V9.52246H13.3965C12.8533 9.52246 12.6834 9.85957 12.6834 10.2061V11.0264H13.8967L13.7029 12.2914H12.6836V15.3488C14.7754 15.0205 16.375 13.2105 16.375 11.0264Z" fill="white"/>
</svg>
