<svg width="25" height="25" viewBox="0 0 25 25" fill="none" xmlns="http://www.w3.org/2000/svg">
<path d="M0 25V0H25V25L12.5 22.1591L0 25Z" fill="#FA7B99"/>
<path d="M13.8229 7.3541C14.3059 7.35554 14.7688 7.54808 15.1103 7.88965C15.4519 8.23123 15.6445 8.69409 15.6459 9.17715V12.8229C15.6445 13.3059 15.4519 13.7688 15.1103 14.1103C14.7688 14.4519 14.3059 14.6445 13.8229 14.6459H10.1771C9.69409 14.6445 9.23123 14.4519 8.88965 14.1103C8.54808 13.7688 8.35554 13.3059 8.3541 12.8229V9.17715C8.35554 8.69409 8.54808 8.23123 8.88965 7.88965C9.23123 7.54808 9.69409 7.35554 10.1771 7.3541H13.8229ZM13.8229 6.625H10.1771C8.77344 6.625 7.625 7.77344 7.625 9.17715V12.8229C7.625 14.2266 8.77344 15.375 10.1771 15.375H13.8229C15.2266 15.375 16.375 14.2266 16.375 12.8229V9.17715C16.375 7.77344 15.2266 6.625 13.8229 6.625Z" fill="white"/>
<path d="M14.3696 9.17725C14.2615 9.17725 14.1557 9.14517 14.0658 9.08508C13.9759 9.02499 13.9058 8.93958 13.8644 8.83965C13.823 8.73972 13.8122 8.62976 13.8333 8.52368C13.8544 8.4176 13.9064 8.32015 13.9829 8.24367C14.0594 8.16719 14.1569 8.11511 14.2629 8.094C14.369 8.0729 14.479 8.08373 14.5789 8.12512C14.6788 8.16652 14.7642 8.23661 14.8243 8.32654C14.8844 8.41648 14.9165 8.52221 14.9165 8.63037C14.9167 8.70223 14.9026 8.77341 14.8752 8.83983C14.8478 8.90625 14.8075 8.9666 14.7567 9.01741C14.7059 9.06823 14.6455 9.1085 14.5791 9.13593C14.5127 9.16336 14.4415 9.1774 14.3696 9.17725Z" fill="white"/>
<path d="M12 9.5416C12.2884 9.5416 12.5704 9.62714 12.8102 9.78739C13.0501 9.94764 13.237 10.1754 13.3474 10.4419C13.4578 10.7084 13.4866 11.0016 13.4304 11.2845C13.3741 11.5674 13.2352 11.8273 13.0312 12.0312C12.8273 12.2352 12.5674 12.3741 12.2845 12.4304C12.0016 12.4866 11.7084 12.4578 11.4419 12.3474C11.1754 12.237 10.9476 12.0501 10.7874 11.8102C10.6271 11.5704 10.5416 11.2884 10.5416 11C10.542 10.6133 10.6958 10.2426 10.9692 9.96921C11.2426 9.6958 11.6133 9.54202 12 9.5416ZM12 8.8125C11.5674 8.8125 11.1444 8.94079 10.7847 9.18116C10.425 9.42153 10.1446 9.76317 9.97901 10.1629C9.81345 10.5626 9.77013 11.0024 9.85453 11.4268C9.93894 11.8511 10.1473 12.2409 10.4532 12.5468C10.7591 12.8527 11.1489 13.0611 11.5732 13.1455C11.9976 13.2299 12.4374 13.1866 12.8371 13.021C13.2368 12.8554 13.5785 12.575 13.8188 12.2153C14.0592 11.8556 14.1875 11.4326 14.1875 11C14.1875 10.4198 13.957 9.86344 13.5468 9.4532C13.1366 9.04297 12.5802 8.8125 12 8.8125Z" fill="white"/>
</svg>
