<svg width="30" height="30" viewBox="0 0 30 30" fill="none" xmlns="http://www.w3.org/2000/svg">
<path d="M0 30V0H30V30L15 26.5909L0 30Z" fill="#248AC2"/>
<path fill-rule="evenodd" clip-rule="evenodd" d="M9 9.00255C9 8.73666 9.10563 8.48165 9.29364 8.29364C9.48165 8.10563 9.73665 8 10.0025 8H19.9964C20.1281 7.99979 20.2586 8.02556 20.3804 8.07586C20.5022 8.12615 20.6129 8.19997 20.7061 8.29309C20.7994 8.38622 20.8733 8.49681 20.9237 8.61855C20.9742 8.74029 21.0001 8.87078 21 9.00255V18.9964C21.0001 19.1282 20.9743 19.2587 20.9239 19.3805C20.8736 19.5023 20.7997 19.613 20.7066 19.7062C20.6134 19.7994 20.5028 19.8733 20.381 19.9237C20.2592 19.9742 20.1287 20.0001 19.9969 20H10.0025C9.87084 20 9.74043 19.9741 9.61876 19.9236C9.49709 19.8732 9.38655 19.7993 9.29345 19.7062C9.20034 19.613 9.12651 19.5024 9.07616 19.3807C9.02581 19.259 8.99993 19.1286 9 18.9969V9.00255ZM13.7498 12.5753H15.3747V13.3913C15.6093 12.9222 16.2093 12.5 17.1109 12.5C18.8395 12.5 19.2491 13.4344 19.2491 15.1487V18.3244H17.4998V15.5393C17.4998 14.5629 17.2653 14.012 16.6696 14.012C15.8433 14.012 15.4996 14.606 15.4996 15.5393V18.3244H13.7498V12.5753ZM10.7498 18.2496H12.4996V12.5H10.7498V18.2491V18.2496ZM12.75 10.6247C12.7533 10.7745 12.7266 10.9235 12.6716 11.0629C12.6165 11.2023 12.5342 11.3293 12.4294 11.4364C12.3246 11.5435 12.1995 11.6286 12.0613 11.6867C11.9232 11.7448 11.7749 11.7748 11.625 11.7748C11.4751 11.7748 11.3268 11.7448 11.1887 11.6867C11.0505 11.6286 10.9254 11.5435 10.8206 11.4364C10.7158 11.3293 10.6335 11.2023 10.5784 11.0629C10.5234 10.9235 10.4967 10.7745 10.5 10.6247C10.5065 10.3306 10.6278 10.0508 10.8381 9.8451C11.0484 9.63941 11.3308 9.52423 11.625 9.52423C11.9192 9.52423 12.2016 9.63941 12.4119 9.8451C12.6222 10.0508 12.7435 10.3306 12.75 10.6247V10.6247Z" fill="white"/>
</svg>
