<svg width="30" height="30" viewBox="0 0 30 30" fill="none" xmlns="http://www.w3.org/2000/svg">
<path d="M0 30V0H30V30L15 26.5909L0 30Z" fill="#F28056"/>
<path fill-rule="evenodd" clip-rule="evenodd" d="M22 14C22 17.8657 18.8657 21 15 21C11.1342 21 8 17.8657 8 14C8 10.1342 11.1342 7 15 7C18.8657 7 22 10.1342 22 14ZM19.4847 13.4505C19.5978 13.6121 19.662 13.8028 19.669 14C19.6721 14.1929 19.6204 14.3827 19.5201 14.5475C19.4197 14.7122 19.2748 14.8452 19.102 14.931C19.1102 15.0337 19.1102 15.1363 19.102 15.239C19.102 16.807 17.275 18.081 15.021 18.081C12.767 18.081 10.94 16.807 10.94 15.239C10.9321 15.1365 10.9321 15.0335 10.94 14.931C10.8065 14.8685 10.6881 14.7779 10.593 14.6653C10.4979 14.5527 10.4283 14.4209 10.389 14.2788C10.3496 14.1368 10.3415 13.9879 10.3652 13.8424C10.3889 13.697 10.4438 13.5584 10.5261 13.4361C10.6085 13.3139 10.7163 13.2109 10.8422 13.1343C10.9682 13.0577 11.1092 13.0093 11.2556 12.9924C11.402 12.9754 11.5503 12.9904 11.6904 13.0363C11.8305 13.0821 11.9589 13.1578 12.067 13.258C12.8736 12.711 13.8225 12.4117 14.797 12.397L15.315 9.968C15.3208 9.93988 15.3322 9.91319 15.3484 9.88949C15.3646 9.86578 15.3853 9.84553 15.4094 9.8299C15.4335 9.81428 15.4605 9.80359 15.4887 9.79845C15.517 9.79332 15.546 9.79385 15.574 9.8L17.289 10.143C17.3728 9.99911 17.5051 9.88978 17.6621 9.83463C17.8192 9.77949 17.9908 9.78215 18.1462 9.84213C18.3015 9.90211 18.4303 10.0155 18.5096 10.1619C18.5888 10.3083 18.6133 10.4782 18.5786 10.641C18.5439 10.8039 18.4523 10.949 18.3202 11.0504C18.1882 11.1518 18.0243 11.2028 17.858 11.1942C17.6917 11.1856 17.534 11.1181 17.413 11.0037C17.292 10.8893 17.2158 10.7355 17.198 10.57L15.7 10.255L15.245 12.439C16.2076 12.4596 17.1437 12.7587 17.94 13.3C18.0463 13.1978 18.1735 13.1198 18.3128 13.0714C18.4521 13.023 18.6002 13.0054 18.747 13.0197C18.8937 13.034 19.0357 13.0799 19.163 13.1543C19.2904 13.2286 19.4001 13.3297 19.4847 13.4505V13.4505ZM12.7868 14.3109C12.7357 14.3874 12.7002 14.4731 12.6823 14.5633C12.6643 14.6535 12.6643 14.7463 12.6822 14.8365C12.7184 15.0187 12.8255 15.179 12.9799 15.2822C13.1343 15.3854 13.3234 15.423 13.5055 15.3868C13.5957 15.3688 13.6815 15.3333 13.758 15.2823C13.8344 15.2312 13.9001 15.1655 13.9512 15.0891C14.0544 14.9347 14.092 14.7456 14.0558 14.5635C14.0196 14.3813 13.9125 14.221 13.7581 14.1178C13.6037 14.0146 13.4146 13.977 13.2325 14.0132C13.0503 14.0494 12.89 14.1565 12.7868 14.3109ZM15.007 17.164C15.6282 17.1897 16.2396 17.0275 16.736 16.653C16.7731 16.6168 16.7944 16.5673 16.795 16.5155C16.7957 16.4636 16.7757 16.4136 16.7395 16.3765C16.7216 16.3581 16.7002 16.3434 16.6766 16.3333C16.653 16.3232 16.6276 16.3178 16.602 16.3175C16.5501 16.3168 16.5001 16.3368 16.463 16.373C16.0382 16.6778 15.5221 16.8284 15 16.8C14.4786 16.8233 13.9649 16.6677 13.544 16.359C13.5077 16.3292 13.4617 16.314 13.4148 16.3163C13.368 16.3186 13.3236 16.3383 13.2905 16.3715C13.2573 16.4046 13.2376 16.449 13.2353 16.4958C13.233 16.5427 13.2482 16.5887 13.278 16.625C13.7746 16.9993 14.3857 17.1897 15.007 17.164V17.164ZM16.2209 15.3102C16.3364 15.3872 16.4647 15.456 16.603 15.456C16.6979 15.4571 16.7921 15.4389 16.8798 15.4024C16.9674 15.3659 17.0468 15.312 17.1129 15.2439C17.1791 15.1758 17.2307 15.0949 17.2645 15.0062C17.2984 14.9175 17.3139 14.8229 17.31 14.728C17.31 14.6071 17.2786 14.4882 17.219 14.3831C17.1593 14.2779 17.0735 14.1899 16.9698 14.1278C16.866 14.0656 16.748 14.0314 16.6271 14.0285C16.5062 14.0255 16.3866 14.0539 16.28 14.1109C16.1734 14.1679 16.0833 14.2516 16.0186 14.3537C15.9539 14.4559 15.9168 14.573 15.9108 14.6938C15.9049 14.8146 15.9303 14.9348 15.9847 15.0428C16.039 15.1509 16.1204 15.243 16.2209 15.3102V15.3102Z" fill="white"/>
</svg>
