<svg width="25" height="25" viewBox="0 0 25 25" fill="none" xmlns="http://www.w3.org/2000/svg">
<path d="M0 25V0H25V25L12.5 22.1591L0 25Z" fill="#7BCCFA"/>
<path d="M17.4715 8.96439C17.0719 9.13803 16.6491 9.25242 16.2164 9.30396C16.6711 9.03771 17.0131 8.61473 17.1781 8.11433C16.7482 8.36571 16.2787 8.54208 15.7896 8.63591C15.5837 8.42007 15.336 8.24837 15.0616 8.13123C14.7873 8.0141 14.4919 7.95398 14.1936 7.95453C12.9858 7.95453 12.0083 8.91778 12.0083 10.1052C12.0075 10.2704 12.0264 10.435 12.0647 10.5957C11.1986 10.5551 10.3505 10.3341 9.57468 9.947C8.79886 9.55985 8.11239 9.01503 7.55919 8.34738C7.36512 8.67455 7.26248 9.04785 7.26201 9.42825C7.26201 10.174 7.65108 10.8332 8.23857 11.2194C7.8905 11.2111 7.54956 11.119 7.2447 10.9508V10.9774C7.2447 12.0206 7.99931 12.8884 8.99807 13.0859C8.81025 13.136 8.61671 13.1614 8.42234 13.1614C8.28442 13.1616 8.14681 13.1482 8.01152 13.1214C8.28917 13.9759 9.09728 14.5974 10.0545 14.6151C9.2767 15.2146 8.32171 15.5386 7.33969 15.5362C7.16538 15.536 6.99123 15.5256 6.81812 15.5051C7.81713 16.1431 8.97841 16.4805 10.1637 16.4773C14.1889 16.4773 16.388 13.1991 16.388 10.356C16.388 10.2628 16.3855 10.1696 16.3811 10.0786C16.8079 9.77495 17.1772 9.39765 17.4715 8.96439Z" fill="white"/>
</svg>
